<?xml version="1.0" encoding="UTF-8"?>
<!DOCTYPE svg PUBLIC "-//W3C//DTD SVG 1.1//EN" "http://www.w3.org/Graphics/SVG/1.1/DTD/svg11.dtd">
<!-- Creator: CorelDRAW -->
<svg xmlns="http://www.w3.org/2000/svg" xml:space="preserve" width="2362px" height="2362px" version="1.1" style="shape-rendering:geometricPrecision; text-rendering:geometricPrecision; image-rendering:optimizeQuality; fill-rule:evenodd; clip-rule:evenodd"
viewBox="0 0 2362 2362"
 xmlns:xlink="http://www.w3.org/1999/xlink"
 xmlns:xodm="http://www.corel.com/coreldraw/odm/2003">
 <defs>
  <style type="text/css">
   <![CDATA[
    .fil0 {fill:#1C3A6D}
    .fil2 {fill:#4782D9}
    .fil1 {fill:#55A5E6}
    .fil6 {fill:#565859}
    .fil5 {fill:#8A8C8D}
    .fil3 {fill:url(#id0)}
    .fil7 {fill:url(#id1)}
    .fil4 {fill:url(#id2)}
   ]]>
  </style>
  <linearGradient id="id0" gradientUnits="userSpaceOnUse" x1="102.28" y1="1319.04" x2="558.09" y2="774.62">
   <stop offset="0" style="stop-opacity:1; stop-color:#113B8F"/>
   <stop offset="1" style="stop-opacity:1; stop-color:#46ADF2"/>
  </linearGradient>
  <linearGradient id="id1" gradientUnits="userSpaceOnUse" x1="372.79" y1="1947.71" x2="1987.41" y2="900.66">
   <stop offset="0" style="stop-opacity:1; stop-color:#145587"/>
   <stop offset="0.490196" style="stop-opacity:1; stop-color:#2C7CDE"/>
   <stop offset="1" style="stop-opacity:1; stop-color:#367DE8"/>
  </linearGradient>
  <linearGradient id="id2" gradientUnits="userSpaceOnUse" x1="1747.44" y1="1357.27" x2="2312.62" y2="1006.52">
   <stop offset="0" style="stop-opacity:1; stop-color:#999999"/>
   <stop offset="1" style="stop-opacity:1; stop-color:#EDEDED"/>
  </linearGradient>
 </defs>
 <g id="Camada_x0020_1">
  <metadata id="CorelCorpID_0Corel-Layer"/>
  <g id="_2756075003536">
   <path class="fil0" d="M1180.1 531.86l276.63 159.72c-137.08,49.83 -287.87,109.79 -431.15,185.13 -154.07,81 -299.46,179.77 -408.42,257.94l0 -277.77 281.48 -162.51 281.46 -162.51z"/>
   <polygon class="fil1" points="832.24,579.37 1180.1,378.53 1180.1,22.44 678.05,312.3 175.99,602.17 484.38,780.21 "/>
   <path class="fil2" d="M1180.1 378.53l347.87 200.84 91.09 52.59c129.3,-48.02 260.19,-90.56 392.35,-129.57l-329.25 -190.09 -502.06 -289.86 0 356.09z"/>
   <path class="fil3" d="M484.38 1181.9l0 -401.69 -308.39 -178.04 0 579.73 0 309.59c10.27,-9.71 20.57,-19.37 30.91,-28.99 90.66,-84.32 181.57,-161.66 277.48,-233.96l0 -46.64z"/>
   <path class="fil4" d="M1875.84 907.99l0 273.91 0 401.68 308.38 178.04 0 -579.72 0 -429.57c-88.28,41.39 -175.85,84.13 -261.81,130.26 -15.55,8.34 -31.08,16.81 -46.57,25.4z"/>
   <polygon class="fil5" points="1875.84,1583.58 1527.97,1784.42 1180.1,1985.26 1180.1,2276.22 1180.1,2341.35 1682.16,2051.49 2184.22,1761.62 "/>
   <polygon class="fil6" points="1180.1,1985.26 832.24,1784.42 832.24,1784.42 678.05,2051.49 678.05,2051.49 1180.1,2341.35 "/>
   <path class="fil7" d="M1147.56 1405.88c81.61,-115.87 191.2,-236.87 317.91,-341.32 126.71,-104.45 270.54,-192.35 410.95,-267.69 104.01,-55.81 206.15,-104.73 307.8,-151.87l0 -42.83 -55.92 -32.28c-176.29,49.81 -328.25,98.6 -475.62,153.36 -164.38,61.07 -323.05,129.56 -477.15,204.9 -154.11,75.34 -303.65,157.53 -445.77,248.28 -142.12,90.75 -276.82,190.06 -456.61,357.29 -31.11,28.95 -63.58,59.93 -97.16,92.59l0 135.32 243.64 140.66c2.93,-8.29 5.86,-16.43 8.77,-24.4 53.08,-144.97 103.31,-234.01 180.36,-322.47 77.05,-88.48 180.93,-176.37 301.36,-262.56 58.14,-41.61 120.15,-82.82 184.14,-123.82 -105.7,102.7 -202.75,203.33 -279.46,299.05 -132.26,165.05 -204.07,315.54 -258.66,513.02l121.91 70.38 393.16 227c-1.2,-2.27 -2.38,-4.52 -3.56,-6.77 -50.8,-97.03 -78.19,-168.95 -92.46,-252.85 -14.27,-83.9 -15.41,-179.78 10.84,-283.09 26.25,-103.31 79.91,-214.04 161.53,-329.9z"/>
  </g>
 </g>
</svg>
