<?xml version="1.0" encoding="UTF-8"?>
<!DOCTYPE svg PUBLIC "-//W3C//DTD SVG 1.1//EN" "http://www.w3.org/Graphics/SVG/1.1/DTD/svg11.dtd">
<!-- Creator: CorelDRAW -->
<svg xmlns="http://www.w3.org/2000/svg" xml:space="preserve" width="2480px" height="3508px" version="1.1" style="shape-rendering:geometricPrecision; text-rendering:geometricPrecision; image-rendering:optimizeQuality; fill-rule:evenodd; clip-rule:evenodd"
viewBox="0 0 2480 3507.43"
 xmlns:xlink="http://www.w3.org/1999/xlink"
 xmlns:xodm="http://www.corel.com/coreldraw/odm/2003">
 <defs>
  <style type="text/css">
   <![CDATA[
    .fil0 {fill:#1C3A6D}
    .fil2 {fill:#4782D9}
    .fil1 {fill:#55A5E6}
    .fil6 {fill:#565859}
    .fil5 {fill:#8A8C8D}
    .fil7 {fill:url(#id0)}
    .fil3 {fill:url(#id1)}
    .fil4 {fill:url(#id2)}
   ]]>
  </style>
  <linearGradient id="id0" gradientUnits="userSpaceOnUse" x1="840.97" y1="842.39" x2="863.25" y2="827.94">
   <stop offset="0" style="stop-opacity:1; stop-color:#145587"/>
   <stop offset="0.490196" style="stop-opacity:1; stop-color:#2C7CDE"/>
   <stop offset="1" style="stop-opacity:1; stop-color:#367DE8"/>
  </linearGradient>
  <linearGradient id="id1" gradientUnits="userSpaceOnUse" x1="837.24" y1="833.71" x2="843.53" y2="826.2">
   <stop offset="0" style="stop-opacity:1; stop-color:#113B8F"/>
   <stop offset="1" style="stop-opacity:1; stop-color:#46ADF2"/>
  </linearGradient>
  <linearGradient id="id2" gradientUnits="userSpaceOnUse" x1="859.94" y1="834.24" x2="867.74" y2="829.4">
   <stop offset="0" style="stop-opacity:1; stop-color:#999999"/>
   <stop offset="1" style="stop-opacity:1; stop-color:#EDEDED"/>
  </linearGradient>
 </defs>
 <g id="Camada_x0020_1">
  <metadata id="CorelCorpID_0Corel-Layer"/>
  <g id="_2004069787488">
   <path class="fil0" d="M852.11 822.85l3.82 2.21c-1.89,0.68 -3.97,1.51 -5.95,2.55 -2.12,1.12 -4.13,2.48 -5.63,3.56l0 -3.83 3.88 -2.25 3.88 -2.24z"/>
   <polygon class="fil1" points="847.31,823.51 852.11,820.74 852.11,815.82 845.19,819.82 838.26,823.82 842.51,826.28 "/>
   <path class="fil2" d="M852.11 820.74l4.8 2.77 1.26 0.72c1.78,-0.66 3.59,-1.25 5.41,-1.78l-4.54 -2.63 -6.93 -4 0 4.92z"/>
   <path class="fil3" d="M842.51 831.82l0 -5.54 -4.25 -2.46 0 8 0 4.27c0.14,-0.13 0.28,-0.26 0.42,-0.4 1.26,-1.16 2.51,-2.23 3.83,-3.22l0 -0.65z"/>
   <path class="fil4" d="M861.71 828.04l0 3.78 0 5.54 4.26 2.46 0 -8 0 -5.93c-1.22,0.58 -2.43,1.17 -3.61,1.8 -0.22,0.12 -0.43,0.23 -0.65,0.35z"/>
   <polygon class="fil5" points="861.71,837.36 856.91,840.14 852.11,842.91 852.11,846.92 852.11,847.82 859.04,843.82 865.97,839.82 "/>
   <polygon class="fil6" points="852.11,842.91 847.31,840.14 847.31,840.14 845.19,843.82 845.19,843.82 852.11,847.82 "/>
   <path class="fil7" d="M851.66 834.91c1.13,-1.6 2.64,-3.27 4.39,-4.71 1.75,-1.44 3.73,-2.65 5.67,-3.69 1.44,-0.77 2.84,-1.45 4.25,-2.1l0 -0.59 -0.77 -0.44c-2.44,0.68 -4.53,1.36 -6.57,2.11 -2.26,0.85 -4.45,1.79 -6.58,2.83 -2.13,1.04 -4.19,2.17 -6.15,3.43 -1.96,1.25 -3.82,2.62 -6.3,4.93 -0.43,0.4 -0.88,0.82 -1.34,1.27l0 1.87 3.36 1.94c0.04,-0.11 0.08,-0.23 0.12,-0.33 0.73,-2.01 1.43,-3.23 2.49,-4.45 1.06,-1.23 2.5,-2.44 4.16,-3.63 0.8,-0.57 1.65,-1.14 2.54,-1.71 -1.46,1.42 -2.8,2.81 -3.86,4.13 -1.82,2.28 -2.81,4.35 -3.57,7.08l1.69 0.97 5.42 3.13c-0.02,-0.03 -0.03,-0.06 -0.05,-0.09 -0.7,-1.34 -1.08,-2.33 -1.27,-3.49 -0.2,-1.16 -0.22,-2.48 0.15,-3.91 0.36,-1.42 1.1,-2.95 2.22,-4.55z"/>
  </g>
 </g>
</svg>
